# xmcd
#
# Track frame offsets:
#	150
#	6471
#	30409
#	53008
#	74154
#	91765
#	112100
#	130366
#	145750
#	158636
#	175443
#	201882
#	224926
#	256388
#
# Disc length: 3676 seconds
#
# Revision: 1
# Processed by: cddbd v1.5.2PL0 Copyright (c) Steve Scherf et al.
# Submitted via: audiograbber 1.82.01
#
DISCID=d60e5a0e
DTITLE=Marcia Hines - Life
DYEAR=2007
DGENRE=Country
TTITLE0=Listen
TTITLE1=Everybody Hurts
TTITLE2=All Woman
TTITLE3=Imagine
TTITLE4=Get Here
TTITLE5=Breathe Again
TTITLE6=God Bless The Child
TTITLE7=I'll Stand By You
TTITLE8=You Make Me Feel Like A Natural Woman
TTITLE9=She's Leaving Home
TTITLE10=The Living Years
TTITLE11=No Ordinary Love
TTITLE12=A House Is Not A Home
TTITLE13=I Am
EXTD=
EXTT0=
EXTT1=
EXTT2=
EXTT3=
EXTT4=
EXTT5=
EXTT6=
EXTT7=
EXTT8=
EXTT9=
EXTT10=
EXTT11=
EXTT12=
EXTT13=
PLAYORDER=
